<svg width="396" height="32" viewBox="0 0 396 32" fill="none" xmlns="http://www.w3.org/2000/svg">
<path d="M34.9062 15.3044L351.906 15.3045" stroke="#898989" stroke-opacity="0.27" stroke-width="3" stroke-linecap="round"/>
<path d="M34.9062 15.3044H177.288" stroke="#E0E0E0" stroke-width="3" stroke-linecap="round"/>
<path d="M6.204 20.0596H0.54V19.3756L3.288 16.9756C4.872 15.5956 5.28 14.9956 5.28 13.9756C5.28 12.8116 4.584 12.1036 3.444 12.1036C2.256 12.1036 1.476 12.9676 1.44 14.2996H0.576C0.624 12.4996 1.764 11.3116 3.456 11.3116C5.076 11.3116 6.156 12.3556 6.156 13.9276C6.156 15.1756 5.592 16.0036 3.876 17.5036L1.872 19.2556H6.204V20.0596ZM8.79028 15.5956C8.38228 15.5956 8.03428 15.2476 8.03428 14.8516C8.03428 14.4436 8.38228 14.1076 8.79028 14.1076C9.19828 14.1076 9.54628 14.4436 9.54628 14.8516C9.54628 15.2476 9.19828 15.5956 8.79028 15.5956ZM8.79028 20.1916C8.38228 20.1916 8.03428 19.8556 8.03428 19.4596C8.03428 19.0516 8.38228 18.7036 8.79028 18.7036C9.19828 18.7036 9.54628 19.0516 9.54628 19.4596C9.54628 19.8556 9.19828 20.1916 8.79028 20.1916ZM17.049 20.0596H11.385V19.3756L14.133 16.9756C15.717 15.5956 16.125 14.9956 16.125 13.9756C16.125 12.8116 15.429 12.1036 14.289 12.1036C13.101 12.1036 12.321 12.9676 12.285 14.2996H11.421C11.469 12.4996 12.609 11.3116 14.301 11.3116C15.921 11.3116 17.001 12.3556 17.001 13.9276C17.001 15.1756 16.437 16.0036 14.721 17.5036L12.717 19.2556H17.049V20.0596ZM21.0027 15.4516H20.3187V14.8516L22.9707 12.2356H18.8547V11.4676H24.0627V12.1636L21.4947 14.7196C23.1027 14.8036 24.2547 15.8236 24.2547 17.3836C24.2547 19.0876 23.0067 20.2036 21.2667 20.2036C19.5747 20.2036 18.4347 19.1596 18.4347 17.4436H19.2867C19.2867 18.6796 20.0547 19.4236 21.2667 19.4236C22.5507 19.4236 23.3787 18.6076 23.3787 17.3596C23.3787 16.1836 22.5387 15.4516 21.0027 15.4516Z" fill="#898989"/>
<path d="M368.746 18.2356H367.738V20.0596H366.898V18.2356H362.386V17.4676L366.586 11.4676H367.738V17.4676H368.746V18.2356ZM363.322 17.4676H366.898V12.3556L363.322 17.4676ZM371.482 15.5956C371.074 15.5956 370.726 15.2476 370.726 14.8516C370.726 14.4436 371.074 14.1076 371.482 14.1076C371.89 14.1076 372.238 14.4436 372.238 14.8516C372.238 15.2476 371.89 15.5956 371.482 15.5956ZM371.482 20.1916C371.074 20.1916 370.726 19.8556 370.726 19.4596C370.726 19.0516 371.074 18.7036 371.482 18.7036C371.89 18.7036 372.238 19.0516 372.238 19.4596C372.238 19.8556 371.89 20.1916 371.482 20.1916ZM380.376 18.2356H379.368V20.0596H378.528V18.2356H374.016V17.4676L378.216 11.4676H379.368V17.4676H380.376V18.2356ZM374.952 17.4676H378.528V12.3556L374.952 17.4676ZM384.712 20.2036C382.984 20.2036 381.88 19.1236 381.88 17.4316H382.744C382.744 18.6676 383.5 19.4116 384.724 19.4116C386.02 19.4116 386.86 18.5476 386.86 17.2756C386.86 16.0756 386.08 15.1276 384.724 15.1276C383.932 15.1276 383.212 15.4876 382.744 16.0036L382.06 15.7876L383.092 11.4676H387.244V12.2596H383.716L383.068 14.9596C383.548 14.5756 384.172 14.3596 384.844 14.3596C386.632 14.3596 387.736 15.6436 387.736 17.2516C387.736 18.9796 386.512 20.2036 384.712 20.2036Z" fill="#898989"/>
</svg>
