<svg width="39" height="41" viewBox="0 0 39 41" fill="none" xmlns="http://www.w3.org/2000/svg">
<path d="M20.0693 13.5678L18.2054 15.3738L16.3416 13.5678C14.3872 11.6741 11.2521 11.7787 9.42823 13.7984C7.65847 15.7581 7.41482 18.6936 9.01738 20.7923C9.21432 21.0502 9.40795 21.2972 9.59223 21.5232C10.7587 22.9542 13.3037 25.4531 14.5788 26.7942C15.5209 27.785 16.3677 28.6113 17.0057 29.2132C17.6794 29.8488 18.7194 29.835 19.3944 29.2007C20.5707 28.0954 22.3747 26.3736 23.6453 25.0372C24.9205 23.6961 25.6522 22.9542 26.8186 21.5232C27.0029 21.2972 27.1965 21.0502 27.3935 20.7923C28.996 18.6936 28.7524 15.7581 26.9826 13.7984C25.1588 11.7787 22.0236 11.6741 20.0693 13.5678Z" stroke="#898989" stroke-width="2.02054" stroke-linecap="round" stroke-linejoin="round"/>
</svg>
