<svg width="39" height="41" viewBox="0 0 39 41" fill="none" xmlns="http://www.w3.org/2000/svg">
<path d="M21.573 13.4704C21.573 15.3302 20.0653 16.8379 18.2055 16.8379C16.3456 16.8379 14.8379 15.3302 14.8379 13.4704C14.8379 11.6105 16.3456 10.1028 18.2055 10.1028C20.0653 10.1028 21.573 11.6105 21.573 13.4704Z" stroke="#898989" stroke-width="2.02054"/>
<path d="M14.8379 20.2056L11.2861 22.5734C10.3492 23.198 9.7865 24.2494 9.7865 25.3754V27.053C9.7865 27.9209 10.4901 28.6245 11.358 28.6245H18.2054" stroke="#898989" stroke-width="2.02054" stroke-linecap="round" stroke-linejoin="round"/>
<path d="M25.7825 13.4705V21.0475M25.7825 21.0475V24.8105C25.7825 25.5596 25.249 26.213 24.5002 26.1894C23.262 26.1504 21.573 25.7063 21.573 23.5732C21.573 20.2056 25.7825 21.0475 25.7825 21.0475Z" stroke="#898989" stroke-width="1.68378" stroke-linecap="round" stroke-linejoin="round"/>
</svg>
